# Blender v2.91.0 OBJ File: 'Low Poly SuperHero-rig0.blend'
# www.blender.org
o BASE_Low_Poly_Man_Cube.001
v 1.077630 0.303115 0.178307
v 0.935881 0.408096 0.316547
v 0.269393 3.139388 0.575050
v 0.777873 0.036930 0.203594
v 0.946146 0.036924 0.019440
v 0.982666 0.197427 0.571221
v 0.840204 0.218576 0.483271
v 1.013764 0.036930 0.828231
v 1.197617 0.036930 0.733672
v 0.817749 0.036930 0.775674
v 1.183956 0.134587 0.754955
v 0.832708 0.134587 0.793792
v 1.016491 0.134587 0.864213
v 0.406876 4.012702 0.366419
v 0.588344 4.403462 0.191460
v 0.354695 4.985268 0.203282
v 0.204401 5.209530 0.281171
v 0.159170 5.177252 0.274161
v 0.118698 5.860658 0.140857
v 0.781797 4.892884 0.130944
v 0.171565 5.003766 0.104903
v 0.115878 5.162769 0.403788
v 0.170409 4.965971 0.322928
v 0.181157 5.158959 0.504566
v 0.439320 4.828655 0.486088
v 0.064140 5.908508 0.340781
v 0.488185 4.547942 -0.050742
v 0.947042 3.891831 -0.095015
v 1.090071 3.953996 -0.207552
v 0.883291 3.857971 -0.274900
v 0.535870 4.876866 -0.109983
v 1.170875 3.592245 -0.217676
v 1.083466 3.390036 0.475440
v 1.153503 3.310795 0.457965
v 0.943927 2.996771 0.829068
v 0.991124 2.925017 0.762134
v 0.961823 2.893271 0.626340
v 1.076792 3.323678 0.813392
v 1.196856 3.148850 0.724332
v 1.087592 3.075474 0.488854
v -0.335714 0.260921 0.096828
v -0.198259 0.370209 0.234393
v -0.280428 3.130120 0.575527
v -0.001216 2.934163 0.304687
v -0.263624 3.097256 0.032752
v -0.040756 -0.000927 0.121381
v -0.205841 -0.000520 -0.062999
v -0.245549 0.159570 0.489007
v -0.100168 0.181822 0.400822
v -0.276648 -0.000926 0.746017
v -0.460503 -0.000926 0.651458
v -0.080631 -0.000926 0.693460
v -0.446841 0.096730 0.672741
v -0.095589 0.096730 0.711578
v -0.279375 0.096730 0.781998
v -0.608923 4.389230 0.183766
v -0.009206 4.652102 -0.122204
v -0.009538 3.296044 0.000716
v -0.369150 4.989034 0.202052
v -0.009412 5.015894 -0.013242
v -0.210381 5.173511 0.298337
v -0.165773 5.164914 0.286230
v -0.010523 5.205976 0.096831
v -0.105801 5.900038 0.413246
v -0.333508 5.789564 0.164065
v -0.109213 5.753779 -0.101282
v 0.017198 5.094734 0.619268
v -0.784301 4.892454 0.132523
v -0.188962 5.006065 0.104411
v -0.112269 5.151928 0.412574
v -0.186119 4.964550 0.325085
v -0.161133 5.127692 0.519867
v -0.276525 5.854951 0.358264
v -0.512846 4.542484 -0.053731
v -0.997654 3.779142 -0.077321
v -0.957578 3.747323 -0.255243
v -0.552863 4.878524 -0.109961
v -1.238267 3.595498 0.042382
v -0.892058 3.494596 -0.166741
v -1.169560 3.401062 -0.169230
v -0.799955 3.211866 0.460814
v -0.791305 3.161495 0.387887
v -0.865819 3.091086 0.418620
v -0.509915 2.755792 0.621500
v -0.593098 2.689606 0.597915
v -0.650009 2.655190 0.471887
v -0.596473 3.089911 0.665165
v -0.762497 2.934151 0.671112
vn 0.4536 -0.1287 0.8819
vn 0.8688 -0.4942 0.0326
vn -0.2382 0.0159 0.9711
vn 0.2393 -0.9520 -0.1910
vn -0.7000 -0.3135 -0.6417
vn 0.2128 -0.5050 0.8365
vn -0.9013 0.1689 0.3990
vn 0.9367 0.1253 0.3268
vn -0.1631 0.9485 -0.2715
vn -0.3638 0.6838 0.6325
vn 0.0970 0.0477 -0.9941
vn 0.5254 -0.0792 -0.8471
vn 0.7290 0.0329 -0.6837
vn 0.9703 0.2135 0.1139
vn -0.6174 -0.7308 -0.2911
vn 0.9098 0.4085 -0.0738
vn 0.0001 -1.0000 -0.0005
vn -0.9711 0.2290 0.0677
vn -0.2006 0.9531 -0.2265
vn -0.7272 -0.1724 -0.6645
vn -0.0607 0.9629 0.2628
vn -0.7718 0.0053 -0.6358
vn -0.5198 -0.3081 0.7968
vn 0.0141 -0.8032 0.5956
vn 0.0000 -1.0000 0.0000
vn 0.0008 0.7658 0.6431
vn 0.0072 -0.4254 0.9050
vn -0.9315 -0.3530 -0.0877
vn -0.6848 0.2863 -0.6701
vn 0.7453 0.3579 0.5625
vn 0.2749 -0.8014 -0.5312
vn -0.7613 0.1419 0.6327
vn -0.7760 -0.6266 -0.0719
vn 0.6339 -0.7696 -0.0761
vn 0.5198 -0.3081 0.7968
vn 0.7525 -0.5978 0.2764
vn -0.6572 -0.1117 0.7454
vn -0.0000 0.0526 0.9986
vn -0.0278 -0.3043 0.9522
vn -0.7583 -0.2738 0.5917
vn -0.7290 -0.5874 -0.3514
vn 0.5867 0.7383 0.3327
vn -0.2661 0.1628 0.9501
vn -0.8608 -0.0676 0.5045
vn -0.0144 0.5592 0.8289
vn -0.8677 -0.3394 -0.3632
vn 0.6733 -0.6086 0.4197
vn -0.0777 -0.9796 -0.1853
vn -0.1941 -0.9808 -0.0186
vn 0.5679 -0.8172 0.0984
vn 0.3185 -0.8433 -0.4329
vn 0.2388 -0.9522 -0.1907
vn 0.0345 -0.9575 -0.2865
vn -0.2993 -0.2599 -0.9181
vn -0.7397 -0.3427 -0.5791
vn 0.8610 -0.3668 -0.3524
vn 0.5339 -0.3617 0.7643
vn 0.7209 -0.0131 0.6929
vn 0.7363 0.1166 0.6665
vn 0.6484 0.0788 0.7572
vn -0.1710 0.7358 0.6553
vn 0.2294 0.6988 0.6776
vn 0.9533 -0.0806 0.2909
vn 0.6197 -0.0050 0.7848
vn 0.8081 -0.1168 0.5773
vn -0.5253 0.2131 0.8238
vn 0.5151 0.2187 0.8287
vn -0.1630 0.9501 -0.2659
vn -0.0176 0.9653 0.2607
vn -0.0000 1.0000 0.0000
vn 0.6528 0.7510 0.0991
vn 0.0322 0.9560 0.2916
vn 0.2677 -0.1692 -0.9485
vn 0.4088 0.6521 -0.6384
vn 0.5130 0.4324 -0.7415
vn 0.7466 -0.1032 -0.6572
vn 0.9981 0.0611 0.0104
vn -0.2768 -0.0867 -0.9570
vn 0.9241 0.2002 -0.3254
vn 0.9185 -0.3003 -0.2571
vn 0.6626 0.1144 -0.7402
vn 0.6116 -0.5421 -0.5763
vn 0.8523 0.1790 -0.4915
vn -0.0150 -0.6132 -0.7897
vn -0.0003 -0.1772 -0.9842
vn -0.1938 -0.2130 -0.9577
vn 0.6134 0.2565 -0.7469
vn 0.8943 0.4298 0.1246
vn 0.7500 0.1894 -0.6338
vn 0.9639 0.2584 -0.0641
vn 0.9725 0.2290 -0.0428
vn 0.9702 0.2403 -0.0319
vn 0.1106 -0.3028 -0.9466
vn 0.2362 0.6082 -0.7578
vn -0.0951 -0.1753 -0.9799
vn -0.7777 0.3457 -0.5251
vn 0.7446 0.0345 -0.6666
vn 0.3729 -0.5918 -0.7147
vn 0.7362 -0.6768 -0.0006
vn 0.8246 -0.1597 0.5426
vn 0.6143 0.4383 -0.6562
vn 0.7400 -0.5144 -0.4332
vn -0.2018 -0.0177 -0.9793
vn 0.9482 -0.1784 -0.2628
vn -0.5743 -0.0637 -0.8161
vn -0.7502 -0.6033 -0.2706
vn 0.4345 0.2864 -0.8539
vn 0.3394 -0.3169 0.8857
vn 0.2565 -0.1382 0.9566
vn 0.2804 0.7134 0.6422
vn 0.9888 0.1467 0.0256
vn 0.6750 -0.0550 0.7357
vn 0.4147 -0.0995 0.9045
vn 0.9747 0.2130 0.0679
vn -0.0023 -1.0000 -0.0002
vn -0.6167 -0.1925 0.7633
vn -0.2445 -0.3292 0.9120
vn -0.2949 -0.1611 0.9419
vn -0.2903 0.7105 0.6410
vn -0.3553 -0.1176 0.9273
vn -0.9116 0.4066 -0.0609
vn -0.9888 0.1484 0.0163
vn -0.7657 0.3190 -0.5585
vn 0.1833 0.9661 -0.1816
vn 0.0015 0.9977 -0.0679
vn -0.1929 0.9517 -0.2388
vn -0.3822 0.7195 -0.5799
vn 0.1777 -0.0103 -0.9840
vn -0.4119 0.7116 -0.5692
vn -0.9159 -0.2703 -0.2967
vn 0.0125 0.9645 0.2639
vn -0.7649 0.5589 0.3203
vn -0.0322 0.9560 0.2916
vn -0.9137 -0.0520 -0.4032
vn -0.1150 -0.0896 -0.9893
vn -0.0695 -0.0715 -0.9950
vn -0.9758 0.1672 -0.1406
vn 0.1849 -0.0269 -0.9824
vn -0.9110 -0.2540 -0.3249
vn -0.4536 -0.1287 0.8819
vn 0.1831 0.9703 -0.1583
vn 0.2642 0.8016 0.5363
vn -0.1927 0.9632 -0.1875
vn -0.2756 0.7779 0.5647
vn 0.2267 0.8964 0.3808
vn -0.2817 -0.1799 0.9425
vn 0.0532 -0.3669 0.9288
vn -0.6590 0.2335 -0.7150
vn -0.8196 -0.5730 -0.0029
vn -0.9684 0.1868 0.1653
vn -0.4152 -0.1698 -0.8938
vn -0.7497 -0.5492 0.3691
vn -0.9688 0.2461 0.0292
vn -0.9435 0.1018 0.3152
vn -0.7580 0.3388 -0.5574
vn 0.4718 0.2855 0.8342
vn 0.9778 0.1583 0.1376
vn 0.4177 -0.6967 -0.5832
vn -0.9708 -0.1539 0.1840
vn -0.4593 0.1537 0.8749
vn -0.8155 -0.3472 0.4631
vn -0.8505 -0.4948 0.1785
vn -0.8240 -0.5664 -0.0148
s off
f 11//1 8//1 9//1
f 56//2 76//2 74//2
f 68//3 78//3 56//3
f 22//4 24//4 67//4
f 65//5 63//5 62//5
f 29//6 25//6 15//6
f 62//7 71//7 70//7
f 23//8 18//8 22//8
f 65//9 64//9 19//9
f 6//10 11//10 2//10
f 21//11 63//11 19//11
f 74//12 76//12 77//12
f 45//13 44//13 46//13
f 29//14 34//14 32//14
f 32//15 33//15 30//15
f 49//16 46//16 42//16
f 52//17 51//17 47//17
f 4//18 10//18 7//18
f 60//19 77//19 69//19
f 44//20 5//20 4//20
f 48//21 41//21 53//21
f 41//22 45//22 47//22
f 53//23 50//23 55//23
f 43//24 44//24 3//24
f 10//25 5//25 9//25
f 25//26 23//26 71//26
f 23//27 70//27 71//27
f 38//28 28//28 33//28
f 77//29 78//29 68//29
f 64//30 24//30 19//30
f 82//31 80//31 79//31
f 65//32 72//32 64//32
f 83//33 88//33 78//33
f 86//34 84//34 85//34
f 11//35 13//35 8//35
f 56//36 75//36 76//36
f 41//37 42//37 43//37
f 43//38 3//38 25//38
f 88//39 85//39 84//39
f 84//40 87//40 81//40
f 84//41 81//41 75//41
f 78//42 88//42 84//42
f 43//43 25//43 68//43
f 56//44 41//44 43//44
f 78//45 84//45 75//45
f 56//46 43//46 68//46
f 78//47 75//47 56//47
f 67//48 72//48 61//48
f 61//49 62//49 70//49
f 22//50 18//50 17//50
f 67//51 61//51 70//51
f 22//52 17//52 24//52
f 67//53 70//53 22//53
f 62//54 61//54 65//54
f 65//55 66//55 63//55
f 28//56 38//56 35//56
f 35//57 36//57 39//57
f 29//58 20//58 25//58
f 3//59 2//59 1//59
f 3//60 1//60 14//60
f 35//61 39//61 29//61
f 28//62 35//62 29//62
f 25//63 3//63 14//63
f 15//64 28//64 29//64
f 25//65 14//65 15//65
f 62//66 59//66 71//66
f 23//67 16//67 18//67
f 19//68 66//68 65//68
f 65//9 73//9 64//9
f 64//9 26//9 19//9
f 6//69 7//69 12//69
f 12//70 13//70 11//70
f 11//71 1//71 2//71
f 6//72 12//72 11//72
f 19//73 17//73 18//73
f 18//74 16//74 21//74
f 21//75 60//75 63//75
f 63//76 66//76 19//76
f 19//77 18//77 21//77
f 5//78 58//78 57//78
f 11//79 9//79 5//79
f 1//80 11//80 5//80
f 1//81 5//81 57//81
f 27//82 15//82 14//82
f 14//83 1//83 57//83
f 27//84 14//84 57//84
f 77//85 31//85 27//85
f 86//86 83//86 82//86
f 87//87 84//87 86//87
f 76//88 75//88 81//88
f 81//89 87//89 86//89
f 81//90 86//90 82//90
f 76//91 81//91 82//91
f 76//92 82//92 79//92
f 76//93 79//93 80//93
f 77//94 27//94 57//94
f 77//95 57//95 74//95
f 76//96 80//96 77//96
f 46//97 47//97 45//97
f 45//98 58//98 44//98
f 39//99 36//99 37//99
f 37//100 40//100 34//100
f 31//101 20//101 29//101
f 39//102 37//102 34//102
f 32//103 31//103 29//103
f 29//104 39//104 34//104
f 30//105 27//105 31//105
f 32//106 34//106 33//106
f 30//107 31//107 32//107
f 54//108 55//108 50//108
f 54//109 50//109 52//109
f 42//110 48//110 49//110
f 49//111 54//111 52//111
f 46//112 44//112 43//112
f 46//113 43//113 42//113
f 49//114 52//114 46//114
f 47//115 46//115 52//115
f 52//25 50//25 51//25
f 3//116 44//116 4//116
f 10//117 8//117 13//117
f 2//118 3//118 4//118
f 7//119 6//119 2//119
f 10//120 13//120 12//120
f 7//121 2//121 4//121
f 10//122 12//122 7//122
f 62//123 63//123 60//123
f 60//124 21//124 20//124
f 20//125 31//125 77//125
f 77//126 68//126 69//126
f 69//127 59//127 62//127
f 60//128 20//128 77//128
f 69//129 62//129 60//129
f 44//130 58//130 5//130
f 53//70 55//70 54//70
f 54//131 49//131 48//131
f 48//132 42//132 41//132
f 53//133 54//133 48//133
f 41//134 56//134 74//134
f 74//135 57//135 58//135
f 74//136 58//136 45//136
f 51//137 53//137 41//137
f 41//138 74//138 45//138
f 47//139 51//139 41//139
f 53//140 51//140 50//140
f 9//25 8//25 10//25
f 10//25 4//25 5//25
f 20//141 21//141 16//141
f 20//142 16//142 23//142
f 59//143 69//143 68//143
f 71//144 59//144 68//144
f 25//145 20//145 23//145
f 71//146 68//146 25//146
f 23//147 22//147 70//147
f 36//148 35//148 38//148
f 28//149 15//149 27//149
f 37//150 36//150 38//150
f 33//151 34//151 37//151
f 28//152 27//152 30//152
f 33//153 37//153 38//153
f 28//154 30//154 33//154
f 77//155 80//155 78//155
f 64//156 67//156 24//156
f 24//157 17//157 19//157
f 82//158 83//158 80//158
f 65//159 61//159 72//159
f 72//160 67//160 64//160
f 83//161 86//161 85//161
f 78//162 80//162 83//162
f 83//163 85//163 88//163
