# Blender v2.91.0 OBJ File: ''
# www.blender.org
mtllib man.mtl
o person_Icosphere.002
v -0.050884 -0.078507 1.787296
v 1.785654 -0.115593 0.313957
v -2.077637 0.479558 0.632497
v -1.210420 -0.115434 -1.366259
v 1.312547 0.479557 -1.812763
v 2.347991 2.250343 -0.039369
v 1.141516 2.363668 2.264030
v -1.828222 2.368567 1.742927
v -1.828222 2.368567 -1.821664
v 1.141516 2.363668 -2.342768
v -1.631980 3.881454 -0.697009
v 0.261727 4.384450 -1.071575
v 0.242724 5.838636 1.270347
v -0.756379 5.903420 -1.064651
v 0.558590 5.838634 -1.246167
v 1.312288 5.838634 0.127156
v -0.235600 6.889194 -0.205891
v -0.011679 4.656914 1.108515
v 1.080191 4.656919 0.319775
v -1.097798 4.449034 -0.039369
v -1.148549 5.897390 0.630781
v -1.346206 5.319339 -0.039369
v 0.427727 6.743979 0.277388
v -0.415288 4.406201 -0.588062
v -0.332714 4.367423 -0.630398
v 0.443539 4.427978 -0.716736
v 0.252491 4.273267 -0.796191
v 0.772612 4.476179 0.007854
v -0.771675 4.571233 -0.373193
v -0.445219 4.493196 0.526568
v -0.850339 4.345864 -0.008706
v -0.858377 4.429082 -0.223070
v 0.081951 4.353209 0.714503
v 0.411985 4.521301 0.656732
v 0.739108 4.356442 0.243261
vt 0.454545 0.000000
vt 0.369011 0.113260
vt 0.500000 0.078731
vt 0.732666 0.113244
vt 0.639509 0.257272
vt 0.800006 0.267560
vt 0.863791 0.119094
vt 0.968178 0.291154
vt 0.135888 0.157461
vt 0.081617 0.252131
vt 0.291069 0.267806
vt 0.292451 0.113260
vt 0.472720 0.267560
vt 0.499524 0.157461
vt 0.209640 0.363111
vt 0.022151 0.119094
vt 0.136363 0.078731
vt 0.681202 0.157461
vt 0.658666 0.274305
vt 0.840484 0.274305
vt 0.863020 0.157461
vt 0.985060 0.289045
vt 0.427623 0.139429
vt 0.318592 0.288606
vt 0.476848 0.274305
vt 0.448444 0.139429
vt 0.727272 0.393651
vt 0.932540 0.431766
vt 0.106898 0.289045
vt 0.181818 0.393651
vt 0.351338 0.412450
vt 0.590909 0.393651
vt 0.522419 0.432483
vt 0.863635 0.393651
vt 0.181818 0.236191
vt 0.194689 0.137153
vt 0.136065 0.116845
vt 0.000000 0.157461
vt 0.345957 0.402574
vt 0.351773 0.399874
vt 0.392544 0.390740
vt 0.402134 0.400726
vt 0.524253 0.390486
vt 0.572076 0.396384
vt 0.318182 0.393651
vt 0.342887 0.426018
vt 0.142395 0.390463
vt 0.171517 0.385810
vt 0.182391 0.392998
vt 0.189509 0.403399
vt 0.926034 0.363721
vt 0.877994 0.358071
vt 0.893815 0.354068
vt 0.753192 0.388235
vt 0.709535 0.388389
vt 0.721695 0.381119
vt 0.234079 0.137538
vt 0.209295 0.111483
vt 0.392039 0.107398
vt 0.317166 0.138350
vt 0.304139 0.142085
vt 0.253855 0.153785
vt 0.123302 0.102443
vt 0.064098 0.128520
vt 0.027251 0.110261
vt 0.663391 0.126187
vt 0.626920 0.140727
vt 0.507349 0.141274
vt 0.491615 0.125485
vt 0.730728 0.118720
vt 0.840080 0.118303
vt 0.789190 0.139976
vn -0.0276 -0.7253 0.6879
vn -0.4198 -0.7438 -0.5200
vn 0.6695 -0.7295 0.1399
vn 0.9817 0.1903 0.0066
vn 0.4410 0.1899 0.8772
vn -0.7006 0.2050 0.6834
vn -0.8378 -0.4939 0.2326
vn -0.6949 0.1525 -0.7027
vn 0.4037 0.2218 -0.8876
vn 0.4787 -0.5348 -0.6962
vn -0.7318 0.6182 -0.2868
vn 0.8649 -0.4483 0.2254
vn 0.9658 0.2509 0.0653
vn 0.1691 0.2958 0.9402
vn -0.0515 -0.4798 0.8759
vn -0.7790 0.3562 0.5161
vn 0.2012 -0.6034 -0.7716
vn -0.5824 0.2890 -0.7597
vn 0.4615 0.2714 -0.8446
vn 0.3458 0.8998 0.2659
vn -0.2107 0.9691 -0.1283
vn -0.9959 -0.0094 -0.0895
vn -0.7727 -0.6343 -0.0226
vn -0.4288 0.1416 -0.8922
vn -0.4193 0.0635 -0.9056
vn 0.1063 -0.4682 -0.8772
vn 0.7923 0.0582 -0.6073
vn 0.9805 -0.0054 -0.1964
vn -0.6311 0.3031 -0.7140
vn -0.5733 0.0087 0.8193
vn -0.8235 -0.3830 0.4185
vn -0.9460 -0.0256 -0.3231
vn 0.5455 0.0685 0.8353
vn -0.0552 -0.2521 0.9661
vn 0.8854 -0.2278 0.4052
usemtl None
s 1
f 1/1/1 4/2/2 2/3/3
f 2/4/3 6/5/4 7/6/5
f 1/7/1 7/6/5 8/8/6
f 3/9/7 8/10/6 9/11/8
f 4/12/2 9/11/8 10/13/9
f 5/14/10 10/13/9 6/5/4
f 9/11/8 8/10/6 11/15/11
f 5/14/10 4/12/2 10/13/9
f 4/12/2 3/9/7 9/11/8
f 3/9/7 1/16/1 8/10/6
f 1/7/1 2/4/3 7/6/5
f 2/4/3 5/14/10 6/5/4
f 2/3/3 4/2/2 5/14/10
f 4/17/2 1/16/1 3/9/7
f 19/18/12 16/19/13 13/20/14
f 18/21/15 13/20/14 21/22/16
f 12/23/17 14/24/18 15/25/19
f 12/26/17 15/25/19 16/19/13
f 13/20/14 16/19/13 23/27/20
f 21/22/16 13/20/14 17/28/21
f 14/24/18 21/29/16 17/30/21
f 15/25/19 14/24/18 17/31/21
f 16/19/13 15/25/19 23/32/20
f 23/32/20 15/25/19 17/33/21
f 17/28/21 13/20/14 23/34/20
f 22/35/22 21/29/16 14/24/18
f 14/24/18 20/36/23 22/35/22
f 22/35/22 20/37/23 21/29/16
f 20/37/23 18/38/15 21/29/16
f 18/21/15 19/18/12 13/20/14
f 19/18/12 12/26/17 16/19/13
f 10/13/9 9/11/8 24/39/24 25/40/25 27/41/26 26/42/27
f 6/5/4 10/13/9 26/43/27 28/44/28
f 11/45/11 29/46/29 24/39/24 9/11/8
f 11/15/11 8/10/6 30/47/30 31/48/31 32/49/32 29/50/29
f 30/51/30 8/8/6 7/6/5 34/52/33 33/53/34
f 34/54/33 7/6/5 6/5/4 28/55/28 35/56/35
f 32/57/32 31/58/31 20/36/23
f 27/59/26 25/60/25 12/23/17
f 20/36/23 14/24/18 12/23/17 25/60/25 24/61/24 29/62/29 32/57/32
f 18/38/15 20/37/23 31/63/31 30/64/30 33/65/34
f 12/26/17 19/18/12 35/66/35 28/67/28 26/68/27 27/69/26
f 35/70/35 19/18/12 18/21/15 33/71/34 34/72/33
