# Blender v2.91.0 OBJ File: 'Low Poly SuperHero.blend'
# www.blender.org
mtllib man2_55.mtl
o BASE_Low_Poly_Man_Cube.001
v 0.515660 0.344496 0.113594
v 0.376489 0.419302 0.234495
v 0.192504 2.853483 0.635806
v 0.286187 2.926581 0.024113
v 0.467049 0.064008 -0.058033
v 0.218668 0.047912 0.121333
v 0.253266 0.322751 0.117903
v 0.443987 0.117285 0.762605
v 0.624987 0.089585 0.670621
v 0.272654 0.096256 0.712293
v 0.497883 3.908409 0.378029
v 0.707461 4.280951 0.291192
v 0.195690 4.991311 0.274625
v 0.766699 4.740887 0.119945
v 0.318880 4.811095 0.216026
v 0.084871 4.936069 0.463134
v 0.402342 4.642756 0.513781
v 0.172646 5.669465 0.478068
v 0.056803 5.473697 -0.056207
v 0.348357 3.898451 0.189714
v 0.937578 3.934792 0.150284
v 0.492565 4.651255 -0.095531
v 0.934826 3.619300 -0.073580
v 0.925354 2.887866 0.186806
v 0.970769 2.407377 0.263638
v 0.950049 2.826271 0.363111
v -0.511999 0.352321 0.112931
v -0.290041 0.443713 0.159000
v -0.285921 2.928771 0.573369
v 0.000000 2.730693 0.298741
v -0.229880 3.045056 0.044219
v -0.464419 0.061192 -0.051305
v -0.218668 0.047912 0.121333
v -0.296502 0.222368 0.446002
v -0.627491 0.086493 0.673066
v -0.326069 0.106817 0.759173
v -0.497883 3.908409 0.378029
v -0.643350 4.309369 0.256716
v 0.000000 4.380599 0.688153
v -0.008415 4.774095 -0.055886
v -0.192896 4.986964 0.285005
v 0.000000 5.028126 0.092256
v 0.149500 5.640549 0.035578
v -0.766699 4.740887 0.119945
v -0.299928 4.812826 0.186625
v -0.092925 4.760792 0.367476
v -0.089867 4.884678 0.573317
v -0.437474 4.656850 0.482812
v -0.108005 5.673112 0.540457
v -0.200768 5.628994 0.095661
v -0.348357 3.898451 0.189714
v -0.937578 3.934792 0.150284
v -0.514504 4.648305 -0.105371
v -0.782494 4.102406 0.295162
v -0.934826 3.619300 -0.073580
v -0.864270 2.910462 0.210030
v -0.985639 2.417869 0.360241
v -0.956708 2.433032 0.170850
vn 0.3106 0.8859 0.3445
vn -0.5824 -0.2659 -0.7682
vn 0.3548 -0.0052 0.9349
vn -0.7675 0.5093 0.3894
vn 0.7625 0.3428 0.5487
vn -0.1870 -0.6971 -0.6921
vn 0.3238 -0.6847 0.6529
vn 0.7009 -0.0244 0.7129
vn -0.1148 0.9172 0.3815
vn -0.0149 -0.9982 0.0587
vn -0.1950 -0.8805 0.4321
vn -0.6483 -0.0422 0.7602
vn 0.6397 -0.1274 0.7580
vn 0.9762 0.1565 0.1499
vn -0.6671 -0.0145 -0.7449
vn 0.6281 -0.4151 -0.6582
vn -0.2156 0.9101 0.3538
vn 0.0335 -0.9972 0.0667
vn 0.6468 0.6947 0.3146
vn 0.1511 0.8781 0.4541
vn 0.3881 0.0173 0.9215
vn 0.9905 -0.0075 0.1373
vn 0.1286 0.9096 -0.3950
vn 0.9768 -0.0406 -0.2103
vn -0.0015 0.9979 -0.0651
vn 0.5787 0.4702 -0.6664
vn -0.7783 -0.1438 0.6112
vn 0.8295 0.0554 -0.5558
vn -0.9889 0.1255 0.0801
vn -0.9520 -0.1610 0.2604
vn 0.1563 -0.0807 -0.9844
vn 0.7234 -0.2366 -0.6487
vn 0.8501 0.1434 -0.5068
vn 0.8426 0.1107 0.5270
vn 0.7468 -0.0307 -0.6643
vn -0.6966 -0.4033 -0.5934
vn 0.6605 -0.2213 -0.7174
vn -0.5902 0.0332 0.8066
vn -0.4130 0.7256 0.5503
vn -0.2532 0.0759 0.9644
vn -0.1166 0.8628 0.4919
vn -0.9654 0.0228 0.2596
vn -0.1345 0.9023 -0.4096
vn -0.9752 -0.0362 -0.2183
vn -0.0480 0.9949 -0.0887
vn -0.5725 0.5196 -0.6343
vn -0.7704 0.0577 -0.6349
vn -0.1594 0.5423 -0.8249
vn 0.9758 0.1620 0.1469
vn 0.9144 -0.1449 0.3780
vn -0.3109 -0.1429 -0.9397
vn -0.6269 -0.2052 -0.7515
vn 0.0537 -0.9349 -0.3509
vn -0.9260 0.1163 -0.3592
vn -0.7416 0.1150 0.6609
usemtl None
s off
f 9//1 1//1 8//1
f 22//2 23//2 24//2
f 49//3 47//3 16//3 18//3
f 2//4 7//4 8//4
f 15//5 13//5 16//5
f 31//6 4//6 30//6
f 16//7 46//7 15//7
f 12//8 21//8 14//8 17//8 3//8 2//8 1//8 11//8
f 35//9 36//9 34//9 27//9
f 33//10 36//10 35//10 32//10
f 29//11 30//11 3//11
f 54//12 38//12 37//12 27//12 28//12 29//12 48//12 44//12 52//12
f 28//13 30//13 29//13
f 34//14 36//14 33//14
f 4//15 5//15 6//15 7//15 30//15
f 12//16 11//16 20//16 22//16
f 8//17 7//17 10//17
f 10//18 6//18 5//18 9//18 8//18
f 2//19 8//19 1//19
f 15//20 46//20 17//20 14//20
f 3//21 17//21 39//21
f 13//22 43//22 18//22 16//22
f 40//23 15//23 14//23 22//23
f 9//24 5//24 1//24
f 49//25 18//25 43//25
f 42//26 13//26 15//26 40//26
f 30//27 7//27 2//27 3//27
f 11//28 1//28 5//28 4//28 20//28
f 6//29 10//29 7//29
f 26//30 12//30 22//30 24//30 25//30
f 31//31 40//31 22//31 20//31 4//31
f 13//32 42//32 19//32 43//32
f 24//33 23//33 22//33 14//33 21//33 25//33
f 25//34 21//34 12//34 26//34
f 32//35 31//35 30//35 28//35 33//35
f 51//36 37//36 38//36 53//36
f 53//37 56//37 58//37 55//37
f 46//38 16//38 41//38 45//38
f 27//39 34//39 28//39
f 48//40 29//40 3//40 39//40 17//40
f 46//41 45//41 44//41 48//41 17//41
f 41//42 47//42 49//42 50//42
f 45//43 40//43 53//43 44//43
f 32//44 35//44 27//44
f 49//45 43//45 50//45
f 42//46 40//46 45//46 41//46
f 27//47 37//47 51//47 31//47 32//47
f 43//48 19//48 50//48
f 33//49 28//49 34//49
f 56//50 53//50 38//50 54//50 57//50 58//50
f 40//51 31//51 51//51 53//51
f 41//52 50//52 19//52 42//52
f 47//53 41//53 16//53
f 53//54 55//54 58//54 57//54 52//54 44//54
f 54//55 52//55 57//55
